# xmcd
#
# Track frame offsets:
#	150
#	13275
#	28301
#	43463
#	59260
#	75030
#	92932
#	114581
#	129475
#	147910
#	166058
#	183397
#	212897
#
# Disc length: 3237 seconds
#
# Revision: 1
# Processed by: cddbd v1.5.2PL0 Copyright (c) Steve Scherf et al.
# Submitted via: audiograbber 1.83.01
#
DISCID=b60ca30d
DTITLE=Macaco - Vecindario
DYEAR=2010
DGENRE=latina
TTITLE0=One Step - Oumou Sangaré
TTITLE1=Seguiremos - Manolo García
TTITLE2=Con la mano levantá - Estopa
TTITLE3=Sideral - Fidel Nadal
TTITLE4=Puerto Presente - Fito Cabrales
TTITLE5=Delaveraveraboom - Bebe
TTITLE6=Monkey man - Michael Franti
TTITLE7=Moving - Seu Jorge
TTITLE8=Mundo roto - Ximena Sariñana
TTITLE9=Giratutto - Jorge Drexler
TTITLE10=Sos - Brett Dennen
TTITLE11=Todos - Marcelo D2
TTITLE12=Pista de Datos
EXTD=
EXTT0=
EXTT1=
EXTT2=
EXTT3=
EXTT4=
EXTT5=
EXTT6=
EXTT7=
EXTT8=
EXTT9=
EXTT10=
EXTT11=
EXTT12=
PLAYORDER=
